<svg width="64" height="64" viewBox="0 0 64 64" fill="none" xmlns="http://www.w3.org/2000/svg"> <path fill-rule="evenodd" clip-rule="evenodd" d="M26.7126 53.343C26.7265 53.6706 26.6911 53.9903 26.6221 54.3138C26.5009 54.8824 26.2669 55.484 25.9355 56.0399C24.9936 57.62 23.3935 58.6745 21.3333 58.6745C16.4803 58.6745 14.5756 56.2936 12.1907 50.3315C10.5756 46.2936 9.8136 45.3411 8 45.3411L8 40.0078C12.8531 40.0078 14.7578 42.3887 17.1426 48.3507C18.7578 52.3887 19.5197 53.3411 21.3333 53.3411C21.3333 52.5674 21.3227 51.8819 21.3004 50.9537C21.2482 48.7783 21.2422 48.3342 21.3371 47.7526C21.375 46.483 21.7028 45.5822 22.36 44.6881C16.4085 43.3926 12.3945 40.7169 10.0906 36.3771L9.22757 34.3475C8.38679 31.9312 8 29.1934 8 26.0315C8 22.39 9.11026 19.1341 11.184 16.4124C10.5371 13.8254 10.6257 10.6646 12.0542 7.09492L12.5209 5.9285L13.7175 5.54574C13.8777 5.49449 14.0725 5.44821 14.3013 5.41229C16.6314 5.04659 19.9469 5.91912 24.2815 8.69556C26.8367 8.10323 29.5276 7.80418 32.2367 7.80418C34.6577 7.80418 37.0652 8.04824 39.3644 8.52942C43.5815 5.88853 46.806 5.06024 49.0733 5.41276C49.2995 5.44793 49.4923 5.49333 49.6512 5.54371L50.8552 5.92554L51.3226 7.09907C52.5721 10.237 52.7866 13.129 52.3319 15.6594C54.7159 18.52 56 22.0367 56 26.0315C56 29.3994 55.7587 31.9318 55.0651 34.3954L54.3331 36.4044C52.4168 40.7396 48.1906 43.4453 41.6734 44.734C42.3508 45.6719 42.6667 46.624 42.6667 48.0078V50.6745C42.6667 51.9667 42.6667 52.0065 42.6637 53.3411C42.6698 53.437 42.6778 53.4839 42.6865 53.5131C42.6844 53.5139 42.6667 58.6745 42.6667 58.6745C40.3952 58.6745 38.7063 57.5667 37.8757 55.8193C37.445 54.9134 37.3163 54.0483 37.3333 53.3033V48.0078C37.3333 47.7842 37.3256 47.7713 36.781 47.2267C35.3256 45.7713 34.6667 44.6731 34.6667 42.6745V40.2622L37.0669 40.0211C44.2116 39.3036 48.0974 37.3195 49.3858 34.4209L49.9879 32.7749C50.467 31.0539 50.6667 28.958 50.6667 26.0315C50.6667 22.9219 49.5811 20.3532 47.528 18.3009L46.3995 17.1729L46.8601 15.6452C47.2692 14.288 47.3665 12.6821 46.9336 10.8504C46.8617 10.8686 46.7869 10.8885 46.7093 10.9101C45.2815 11.3076 43.4988 12.1606 41.3505 13.5965L40.3707 14.2514L39.2268 13.9678C37.0144 13.4192 34.6369 13.1375 32.2367 13.1375C29.5676 13.1375 26.9292 13.4771 24.4919 14.1416L23.3024 14.4658L22.2848 13.7697C20.063 12.2498 18.2172 11.3459 16.7371 10.9236C16.6314 10.8935 16.5308 10.8665 16.4351 10.8424C15.9187 12.9624 16.123 14.7041 16.6459 16.0111L17.273 17.5781L16.125 18.8155C14.2957 20.7872 13.3333 23.1866 13.3333 26.0315C13.3333 28.6362 13.6383 30.7945 14.197 32.4203L14.8948 34.0721C16.6393 37.3455 20.3445 39.3148 26.9509 40.023L29.3333 40.2784V42.6745C29.3333 44.6731 28.6744 45.7713 27.219 47.2267C26.6744 47.7713 26.6667 47.7842 26.6667 48.0078L26.6207 48.5008C26.5903 48.6625 26.5903 49.0799 26.6322 50.8256C26.6515 51.6285 26.6625 52.264 26.6657 52.9281C26.6976 53.0655 26.7024 53.1542 26.7126 53.343Z" fill="black"/> </svg>
